<?xml version="1.0" encoding="utf-8"?>
<!-- Generator: Adobe Illustrator 19.0.0, SVG Export Plug-In . SVG Version: 6.00 Build 0)  -->
<svg version="1.1" id="Calque_1" xmlns="http://www.w3.org/2000/svg" xmlns:xlink="http://www.w3.org/1999/xlink" x="0px" y="0px"
	 viewBox="-608 376 62.6 49" style="enable-background:new -608 376 62.6 49;" xml:space="preserve">
<style type="text/css">
	.st0{fill:#FED746;}
</style>
<g id="XMLID_1_">
	<path id="XMLID_16_" class="st0" d="M-574.9,399.8c-1.6,0-2.7,1.2-2.7,3.1c0,1.8,1.1,3.1,2.7,3.1c1.6,0,2.7-1.2,2.7-3.1
		C-572.3,401-573.4,399.8-574.9,399.8z"/>
	<path id="XMLID_19_" class="st0" d="M-576.7,378.6c-15.5,0-28,9.8-28,21.9s12.6,21.9,28,21.9c4.2,0,8.2-0.7,11.8-2l8.8,2.1l0.6-7.6
		c4.3-3.8,6.9-8.9,6.9-14.4C-548.6,388.4-561.2,378.6-576.7,378.6z M-584.9,408.9h-4v-5l-6-11h4l3.8,6.7l3.7-6.7h4l-5.4,10.9v5.1
		H-584.9z M-574.9,408.9c-4,0-6.6-2.4-6.6-6.1c0-3.6,2.6-6,6.6-6c3.9,0,6.6,2.4,6.6,6C-568.4,406.5-571,408.9-574.9,408.9z
		 M-562.6,408.7c-1,0-1.7-0.7-1.7-1.7s0.7-1.7,1.7-1.7s1.7,0.7,1.7,1.7C-561,408-561.7,408.7-562.6,408.7z M-560.9,398.1l-0.7,5.8
		h-2.1l-0.2-5.8v-3.2h3V398.1z"/>
</g>
</svg>
